<svg xmlns="http://www.w3.org/2000/svg" viewBox="0 0 64 64" width="64" height="64">
  <rect width="64" height="64" rx="12" fill="#161006"/>
  <rect x="5" y="5" width="54" height="54" rx="8" fill="none" stroke="#E39410" stroke-width="2"/>
  <!-- rising sun -->
  <circle cx="32" cy="38" r="12" fill="#F7B733"/>
  <circle cx="32" cy="38" r="12" fill="none" stroke="#FDE68A" stroke-width="2"/>
  <!-- rays -->
  <g stroke="#F7B733" stroke-width="2.6" stroke-linecap="round">
    <line x1="32" y1="16" x2="32" y2="22"/>
    <line x1="17" y1="23" x2="21" y2="27"/>
    <line x1="47" y1="23" x2="43" y2="27"/>
    <line x1="12" y1="38" x2="18" y2="38"/>
    <line x1="46" y1="38" x2="52" y2="38"/>
  </g>
  <!-- field furrows -->
  <g stroke="#4E9626" stroke-width="2.4" stroke-linecap="round">
    <line x1="14" y1="48" x2="50" y2="48"/>
    <line x1="17" y1="53" x2="47" y2="53"/>
  </g>
  <!-- wheat stalk -->
  <g stroke="#FDE68A" stroke-width="1.6" stroke-linecap="round" fill="none">
    <path d="M32 38 V26"/>
    <path d="M32 32 C29 31 27.5 29 27 26.5 C29.5 27.5 31 29.5 32 32 Z"/>
    <path d="M32 32 C35 31 36.5 29 37 26.5 C34.5 27.5 33 29.5 32 32 Z"/>
  </g>
</svg>

